<svg xmlns="http://www.w3.org/2000/svg" width="393" height="392.999" viewBox="0 0 393 392.999"><defs><style>.a{fill:#00b4dd;opacity:0.06;}</style></defs><g transform="translate(0 -0.001)"><path class="a" d="M92.877,369.972a91.72,91.72,0,0,0,59.268-21.591,92.091,92.091,0,0,0,170.018-60.914,149.9,149.9,0,0,0,46.267-49.386L391.458,198.2a11.519,11.519,0,0,0-4.216-15.729L367.3,170.954a149.6,149.6,0,0,0-30.574-13.346,149.816,149.816,0,0,0,9.451-52.45V59.1A11.513,11.513,0,0,0,334.663,47.59H311.636A149.911,149.911,0,0,0,273.8,52.447c-9.43-16.542-13.547-24.242-25.99-46.528a11.517,11.517,0,0,0-16.1-4.21c-16.3,11.16-42.187,21.165-65.742,53.413a148.5,148.5,0,0,0-23.5,48.945,92.2,92.2,0,0,0-49.59,81.687C41.665,185.754,0,227.074,0,277.863s41.665,92.109,92.877,92.109Zm138.164,0a69.1,69.1,0,0,1-64.459-93.956,92.1,92.1,0,0,0,91.636-34.466q2.258-1.021,4.468-2.1a68.812,68.812,0,0,1,35.482,45.035c.018.069.03.138.048.207a69.157,69.157,0,0,1-67.175,85.285ZM355.787,190.9l9.973,5.757-17.27,29.912a126.679,126.679,0,0,1-33.021,37.4,91.74,91.74,0,0,0-30.646-37.911,149.4,149.4,0,0,0,42.094-47.335A126.669,126.669,0,0,1,355.787,190.9ZM323.15,70.617v34.541a126.643,126.643,0,0,1-12.8,55.574.325.325,0,0,1-.018.033,126.4,126.4,0,0,1-35.147,43.686,92.139,92.139,0,0,0-48.711-100.918,126.431,126.431,0,0,1,85.162-32.916ZM233.533,27.63c19.072,34.256,16.236,29.285,18.107,32.5a149.592,149.592,0,0,0-49.515,35.123,92.16,92.16,0,0,0-32.283-.354c19.252-46.855,56.384-61.544,63.691-67.268Zm-48.546,89.042A69.082,69.082,0,1,1,115.9,185.754,69.161,69.161,0,0,1,184.986,116.672ZM95.809,208.847a92.512,92.512,0,0,0,48.963,59.763,92.242,92.242,0,0,0-2.36,57.4,68.806,68.806,0,0,1-49.536,20.931c-38.517,0-69.849-30.991-69.849-69.082,0-39.206,33.132-70.677,72.782-69.016Zm0,0" transform="translate(0 0)"/><path class="a" d="M84.027,408.055A23.027,23.027,0,1,0,61,385.027,23.052,23.052,0,0,0,84.027,408.055Zm0,0" transform="translate(-14.178 -84.137)"/><path class="a" d="M204.027,288.055A23.027,23.027,0,1,0,181,265.027,23.052,23.052,0,0,0,204.027,288.055Zm0,0" transform="translate(-42.069 -56.246)"/><path class="a" d="M264.027,392a23.027,23.027,0,1,0,23.027,23.027A23.052,23.052,0,0,0,264.027,392Zm0,0" transform="translate(-56.014 -91.11)"/></g></svg>