<svg xmlns="http://www.w3.org/2000/svg" width="767" height="508" viewBox="0 0 767 508"><defs><style>.a{opacity:0.21;}.b{fill:#00b4dd;}</style></defs><g class="a" transform="translate(-1015 -1848)"><circle class="b" cx="13.5" cy="13.5" r="13.5" transform="translate(1015 1996)"/><circle class="b" cx="13.5" cy="13.5" r="13.5" transform="translate(1089 1996)"/><circle class="b" cx="13.5" cy="13.5" r="13.5" transform="translate(1126 1959)"/><circle class="b" cx="13.5" cy="13.5" r="13.5" transform="translate(1052 2070)"/><circle class="b" cx="13.5" cy="13.5" r="13.5" transform="translate(1274 1959)"/><circle class="b" cx="13.5" cy="13.5" r="13.5" transform="translate(1274 1922)"/><circle class="b" cx="13.5" cy="13.5" r="13.5" transform="translate(1163 1885)"/><circle class="b" cx="13.5" cy="13.5" r="13.5" transform="translate(1348 1848)"/><circle class="b" cx="13.5" cy="13.5" r="13.5" transform="translate(1200 2070)"/><circle class="b" cx="13.5" cy="13.5" r="13.5" transform="translate(1163 2255)"/><circle class="b" cx="13.5" cy="13.5" r="13.5" transform="translate(1422 1959)"/><circle class="b" cx="13.5" cy="13.5" r="13.5" transform="translate(1422 1922)"/><circle class="b" cx="13.5" cy="13.5" r="13.5" transform="translate(1311 1885)"/><circle class="b" cx="13.5" cy="13.5" r="13.5" transform="translate(1496 1848)"/><circle class="b" cx="13.5" cy="13.5" r="13.5" transform="translate(1644 1959)"/><circle class="b" cx="13.5" cy="13.5" r="13.5" transform="translate(1644 1922)"/><circle class="b" cx="13.5" cy="13.5" r="13.5" transform="translate(1533 1885)"/><circle class="b" cx="13.5" cy="13.5" r="13.5" transform="translate(1718 1848)"/><circle class="b" cx="13.5" cy="13.5" r="13.5" transform="translate(1348 2070)"/><circle class="b" cx="13.5" cy="13.5" r="13.5" transform="translate(1570 2070)"/><circle class="b" cx="13.5" cy="13.5" r="13.5" transform="translate(1311 2255)"/><circle class="b" cx="13.5" cy="13.5" r="13.5" transform="translate(1163 1996)"/><circle class="b" cx="13.5" cy="13.5" r="13.5" transform="translate(1089 2107)"/><circle class="b" cx="13.5" cy="13.5" r="13.5" transform="translate(1311 1996)"/><circle class="b" cx="13.5" cy="13.5" r="13.5" transform="translate(1274 2181)"/><circle class="b" cx="13.5" cy="13.5" r="13.5" transform="translate(1237 2107)"/><circle class="b" cx="13.5" cy="13.5" r="13.5" transform="translate(1200 2292)"/><circle class="b" cx="13.5" cy="13.5" r="13.5" transform="translate(1459 1996)"/><circle class="b" cx="13.5" cy="13.5" r="13.5" transform="translate(1681 1996)"/><circle class="b" cx="13.5" cy="13.5" r="13.5" transform="translate(1422 2181)"/><circle class="b" cx="13.5" cy="13.5" r="13.5" transform="translate(1644 2181)"/><circle class="b" cx="13.5" cy="13.5" r="13.5" transform="translate(1385 2107)"/><circle class="b" cx="13.5" cy="13.5" r="13.5" transform="translate(1607 2107)"/><circle class="b" cx="13.5" cy="13.5" r="13.5" transform="translate(1348 2292)"/><circle class="b" cx="13.5" cy="13.5" r="13.5" transform="translate(1570 2292)"/><circle class="b" cx="13.5" cy="13.5" r="13.5" transform="translate(1533 2255)"/><circle class="b" cx="13.5" cy="13.5" r="13.5" transform="translate(1200 2033)"/><circle class="b" cx="13.5" cy="13.5" r="13.5" transform="translate(1163 2218)"/><circle class="b" cx="13.5" cy="13.5" r="13.5" transform="translate(1126 2144)"/><circle class="b" cx="13.5" cy="13.5" r="13.5" transform="translate(1348 2033)"/><circle class="b" cx="13.5" cy="13.5" r="13.5" transform="translate(1570 2033)"/><circle class="b" cx="13.5" cy="13.5" r="13.5" transform="translate(1311 2218)"/><circle class="b" cx="13.5" cy="13.5" r="13.5" transform="translate(1274 2144)"/><circle class="b" cx="13.5" cy="13.5" r="13.5" transform="translate(1237 2329)"/><circle class="b" cx="13.5" cy="13.5" r="13.5" transform="translate(1496 2033)"/><circle class="b" cx="13.5" cy="13.5" r="13.5" transform="translate(1718 2033)"/><circle class="b" cx="13.5" cy="13.5" r="13.5" transform="translate(1459 2218)"/><circle class="b" cx="13.5" cy="13.5" r="13.5" transform="translate(1681 2218)"/><circle class="b" cx="13.5" cy="13.5" r="13.5" transform="translate(1422 2144)"/><circle class="b" cx="13.5" cy="13.5" r="13.5" transform="translate(1644 2144)"/><circle class="b" cx="13.5" cy="13.5" r="13.5" transform="translate(1385 2329)"/><circle class="b" cx="13.5" cy="13.5" r="13.5" transform="translate(1607 2329)"/><circle class="b" cx="13.5" cy="13.5" r="13.5" transform="translate(1200 1959)"/><circle class="b" cx="13.5" cy="13.5" r="13.5" transform="translate(1126 2070)"/><circle class="b" cx="13.5" cy="13.5" r="13.5" transform="translate(1348 1959)"/><circle class="b" cx="13.5" cy="13.5" r="13.5" transform="translate(1348 1922)"/><circle class="b" cx="13.5" cy="13.5" r="13.5" transform="translate(1237 1885)"/><circle class="b" cx="13.5" cy="13.5" r="13.5" transform="translate(1422 1848)"/><circle class="b" cx="13.5" cy="13.5" r="13.5" transform="translate(1570 1959)"/><circle class="b" cx="13.5" cy="13.5" r="13.5" transform="translate(1570 1922)"/><circle class="b" cx="13.5" cy="13.5" r="13.5" transform="translate(1459 1885)"/><circle class="b" cx="13.5" cy="13.5" r="13.5" transform="translate(1644 1848)"/><circle class="b" cx="13.5" cy="13.5" r="13.5" transform="translate(1274 2070)"/><circle class="b" cx="13.5" cy="13.5" r="13.5" transform="translate(1237 2255)"/><circle class="b" cx="13.5" cy="13.5" r="13.5" transform="translate(1496 1959)"/><circle class="b" cx="13.5" cy="13.5" r="13.5" transform="translate(1496 1922)"/><circle class="b" cx="13.5" cy="13.5" r="13.5" transform="translate(1385 1885)"/><circle class="b" cx="13.5" cy="13.5" r="13.5" transform="translate(1570 1848)"/><circle class="b" cx="13.5" cy="13.5" r="13.5" transform="translate(1718 1959)"/><circle class="b" cx="13.5" cy="13.5" r="13.5" transform="translate(1422 2070)"/><circle class="b" cx="13.5" cy="13.5" r="13.5" transform="translate(1644 2070)"/><circle class="b" cx="13.5" cy="13.5" r="13.5" transform="translate(1385 2255)"/><circle class="b" cx="13.5" cy="13.5" r="13.5" transform="translate(1607 2255)"/><circle class="b" cx="13.5" cy="13.5" r="13.5" transform="translate(1052 1996)"/><circle class="b" cx="13.5" cy="13.5" r="13.5" transform="translate(1089 1959)"/><circle class="b" cx="13.5" cy="13.5" r="13.5" transform="translate(1126 1996)"/><circle class="b" cx="13.5" cy="13.5" r="13.5" transform="translate(1052 2107)"/><circle class="b" cx="13.5" cy="13.5" r="13.5" transform="translate(1274 1996)"/><circle class="b" cx="13.5" cy="13.5" r="13.5" transform="translate(1237 2181)"/><circle class="b" cx="13.5" cy="13.5" r="13.5" transform="translate(1200 2107)"/><circle class="b" cx="13.5" cy="13.5" r="13.5" transform="translate(1163 2292)"/><circle class="b" cx="13.5" cy="13.5" r="13.5" transform="translate(1422 1996)"/><circle class="b" cx="13.5" cy="13.5" r="13.5" transform="translate(1644 1996)"/><circle class="b" cx="13.5" cy="13.5" r="13.5" transform="translate(1385 2181)"/><circle class="b" cx="13.5" cy="13.5" r="13.5" transform="translate(1607 2181)"/><circle class="b" cx="13.5" cy="13.5" r="13.5" transform="translate(1348 2107)"/><circle class="b" cx="13.5" cy="13.5" r="13.5" transform="translate(1570 2107)"/><circle class="b" cx="13.5" cy="13.5" r="13.5" transform="translate(1311 2292)"/><circle class="b" cx="13.5" cy="13.5" r="13.5" transform="translate(1163 2033)"/><circle class="b" cx="13.5" cy="13.5" r="13.5" transform="translate(1089 2144)"/><circle class="b" cx="13.5" cy="13.5" r="13.5" transform="translate(1311 2033)"/><circle class="b" cx="13.5" cy="13.5" r="13.5" transform="translate(1274 2218)"/><circle class="b" cx="13.5" cy="13.5" r="13.5" transform="translate(1237 2144)"/><circle class="b" cx="13.5" cy="13.5" r="13.5" transform="translate(1200 2329)"/><circle class="b" cx="13.5" cy="13.5" r="13.5" transform="translate(1459 2033)"/><circle class="b" cx="13.5" cy="13.5" r="13.5" transform="translate(1681 2033)"/><circle class="b" cx="13.5" cy="13.5" r="13.5" transform="translate(1422 2218)"/><circle class="b" cx="13.5" cy="13.5" r="13.5" transform="translate(1644 2218)"/><circle class="b" cx="13.5" cy="13.5" r="13.5" transform="translate(1385 2144)"/><circle class="b" cx="13.5" cy="13.5" r="13.5" transform="translate(1607 2144)"/><circle class="b" cx="13.5" cy="13.5" r="13.5" transform="translate(1348 2329)"/><circle class="b" cx="13.5" cy="13.5" r="13.5" transform="translate(1570 2329)"/><circle class="b" cx="13.5" cy="13.5" r="13.5" transform="translate(1533 2292)"/><circle class="b" cx="13.5" cy="13.5" r="13.5" transform="translate(1163 1959)"/><circle class="b" cx="13.5" cy="13.5" r="13.5" transform="translate(1089 2070)"/><circle class="b" cx="13.5" cy="13.5" r="13.5" transform="translate(1311 1959)"/><circle class="b" cx="13.5" cy="13.5" r="13.5" transform="translate(1311 1922)"/><circle class="b" cx="13.5" cy="13.5" r="13.5" transform="translate(1200 1885)"/><circle class="b" cx="13.5" cy="13.5" r="13.5" transform="translate(1385 1848)"/><circle class="b" cx="13.5" cy="13.5" r="13.5" transform="translate(1237 2070)"/><circle class="b" cx="13.5" cy="13.5" r="13.5" transform="translate(1200 2255)"/><circle class="b" cx="13.5" cy="13.5" r="13.5" transform="translate(1459 1959)"/><circle class="b" cx="13.5" cy="13.5" r="13.5" transform="translate(1459 1922)"/><circle class="b" cx="13.5" cy="13.5" r="13.5" transform="translate(1348 1885)"/><circle class="b" cx="13.5" cy="13.5" r="13.5" transform="translate(1533 1848)"/><circle class="b" cx="13.5" cy="13.5" r="13.5" transform="translate(1681 1959)"/><circle class="b" cx="13.5" cy="13.5" r="13.5" transform="translate(1681 1922)"/><circle class="b" cx="13.5" cy="13.5" r="13.5" transform="translate(1570 1885)"/><circle class="b" cx="13.5" cy="13.5" r="13.5" transform="translate(1755 1848)"/><circle class="b" cx="13.5" cy="13.5" r="13.5" transform="translate(1385 2070)"/><circle class="b" cx="13.5" cy="13.5" r="13.5" transform="translate(1607 2070)"/><circle class="b" cx="13.5" cy="13.5" r="13.5" transform="translate(1348 2255)"/><circle class="b" cx="13.5" cy="13.5" r="13.5" transform="translate(1570 2255)"/><circle class="b" cx="13.5" cy="13.5" r="13.5" transform="translate(1533 2218)"/><circle class="b" cx="13.5" cy="13.5" r="13.5" transform="translate(1200 1996)"/><circle class="b" cx="13.5" cy="13.5" r="13.5" transform="translate(1163 2181)"/><circle class="b" cx="13.5" cy="13.5" r="13.5" transform="translate(1126 2107)"/><circle class="b" cx="13.5" cy="13.5" r="13.5" transform="translate(1348 1996)"/><circle class="b" cx="13.5" cy="13.5" r="13.5" transform="translate(1570 1996)"/><circle class="b" cx="13.5" cy="13.5" r="13.5" transform="translate(1311 2181)"/><circle class="b" cx="13.5" cy="13.5" r="13.5" transform="translate(1274 2107)"/><circle class="b" cx="13.5" cy="13.5" r="13.5" transform="translate(1237 2292)"/><circle class="b" cx="13.5" cy="13.5" r="13.5" transform="translate(1496 1996)"/><circle class="b" cx="13.5" cy="13.5" r="13.5" transform="translate(1718 1996)"/><circle class="b" cx="13.5" cy="13.5" r="13.5" transform="translate(1459 2181)"/><circle class="b" cx="13.5" cy="13.5" r="13.5" transform="translate(1681 2181)"/><circle class="b" cx="13.5" cy="13.5" r="13.5" transform="translate(1422 2107)"/><circle class="b" cx="13.5" cy="13.5" r="13.5" transform="translate(1644 2107)"/><circle class="b" cx="13.5" cy="13.5" r="13.5" transform="translate(1385 2292)"/><circle class="b" cx="13.5" cy="13.5" r="13.5" transform="translate(1607 2292)"/><circle class="b" cx="13.5" cy="13.5" r="13.5" transform="translate(1237 2033)"/><circle class="b" cx="13.5" cy="13.5" r="13.5" transform="translate(1200 2218)"/><circle class="b" cx="13.5" cy="13.5" r="13.5" transform="translate(1163 2144)"/><circle class="b" cx="13.5" cy="13.5" r="13.5" transform="translate(1385 2033)"/><circle class="b" cx="13.5" cy="13.5" r="13.5" transform="translate(1607 2033)"/><circle class="b" cx="13.5" cy="13.5" r="13.5" transform="translate(1348 2218)"/><circle class="b" cx="13.5" cy="13.5" r="13.5" transform="translate(1570 2218)"/><circle class="b" cx="13.5" cy="13.5" r="13.5" transform="translate(1533 2181)"/><circle class="b" cx="13.5" cy="13.5" r="13.5" transform="translate(1311 2144)"/><circle class="b" cx="13.5" cy="13.5" r="13.5" transform="translate(1274 2329)"/><circle class="b" cx="13.5" cy="13.5" r="13.5" transform="translate(1533 2033)"/><circle class="b" cx="13.5" cy="13.5" r="13.5" transform="translate(1755 2033)"/><circle class="b" cx="13.5" cy="13.5" r="13.5" transform="translate(1496 2218)"/><circle class="b" cx="13.5" cy="13.5" r="13.5" transform="translate(1718 2218)"/><circle class="b" cx="13.5" cy="13.5" r="13.5" transform="translate(1459 2144)"/><circle class="b" cx="13.5" cy="13.5" r="13.5" transform="translate(1681 2144)"/><circle class="b" cx="13.5" cy="13.5" r="13.5" transform="translate(1422 2329)"/><circle class="b" cx="13.5" cy="13.5" r="13.5" transform="translate(1644 2329)"/><circle class="b" cx="13.5" cy="13.5" r="13.5" transform="translate(1237 1959)"/><circle class="b" cx="13.5" cy="13.5" r="13.5" transform="translate(1163 2070)"/><circle class="b" cx="13.5" cy="13.5" r="13.5" transform="translate(1385 1959)"/><circle class="b" cx="13.5" cy="13.5" r="13.5" transform="translate(1385 1922)"/><circle class="b" cx="13.5" cy="13.5" r="13.5" transform="translate(1274 1885)"/><circle class="b" cx="13.5" cy="13.5" r="13.5" transform="translate(1459 1848)"/><circle class="b" cx="13.5" cy="13.5" r="13.5" transform="translate(1607 1959)"/><circle class="b" cx="13.5" cy="13.5" r="13.5" transform="translate(1607 1922)"/><circle class="b" cx="13.5" cy="13.5" r="13.5" transform="translate(1496 1885)"/><circle class="b" cx="13.5" cy="13.5" r="13.5" transform="translate(1681 1848)"/><circle class="b" cx="13.5" cy="13.5" r="13.5" transform="translate(1311 2070)"/><circle class="b" cx="13.5" cy="13.5" r="13.5" transform="translate(1274 2255)"/><circle class="b" cx="13.5" cy="13.5" r="13.5" transform="translate(1533 1959)"/><circle class="b" cx="13.5" cy="13.5" r="13.5" transform="translate(1533 1922)"/><circle class="b" cx="13.5" cy="13.5" r="13.5" transform="translate(1422 1885)"/><circle class="b" cx="13.5" cy="13.5" r="13.5" transform="translate(1607 1848)"/><circle class="b" cx="13.5" cy="13.5" r="13.5" transform="translate(1755 1959)"/><circle class="b" cx="13.5" cy="13.5" r="13.5" transform="translate(1459 2070)"/><circle class="b" cx="13.5" cy="13.5" r="13.5" transform="translate(1681 2070)"/><circle class="b" cx="13.5" cy="13.5" r="13.5" transform="translate(1422 2255)"/><circle class="b" cx="13.5" cy="13.5" r="13.5" transform="translate(1644 2255)"/></g></svg>