<svg xmlns="http://www.w3.org/2000/svg" xmlns:xlink="http://www.w3.org/1999/xlink" width="1017" height="527.3" viewBox="0 0 1017 527.3"><defs><style>.a{fill:#f9fcff;}.b{filter:url(#a);}</style><filter id="a" x="0" y="0" width="1017" height="527.3" filterUnits="userSpaceOnUse"><feOffset dy="5" input="SourceAlpha"/><feGaussianBlur stdDeviation="10" result="b"/><feFlood flood-opacity="0.071"/><feComposite operator="in" in2="b"/><feComposite in="SourceGraphic"/></filter></defs><g class="b" transform="matrix(1, 0, 0, 1, 0, 0)"><path class="a" d="M-961.835,1486.057h-479.179a240.674,240.674,0,0,1-48.149-4.854,237.683,237.683,0,0,1-44.846-13.921,238.917,238.917,0,0,1-40.583-22.027,240.624,240.624,0,0,1-35.358-29.173,240.6,240.6,0,0,1-29.173-35.358,238.924,238.924,0,0,1-22.028-40.582,237.7,237.7,0,0,1-13.921-44.846,240.646,240.646,0,0,1-4.854-48.149,238.518,238.518,0,0,1,12.613-76.8,237.929,237.929,0,0,1,35.07-66.433A239.861,239.861,0,0,1-1578.868,1052a237.692,237.692,0,0,1,67.521-33.242c25.65,26.571,67.879,49.168,122.122,65.348,55.592,16.582,120.532,25.347,187.8,25.347s132.208-8.765,187.8-25.348c54.243-16.18,96.472-38.777,122.122-65.348A237.692,237.692,0,0,1-823.981,1052a239.855,239.855,0,0,1,53.373,51.915,237.926,237.926,0,0,1,35.07,66.433,238.52,238.52,0,0,1,12.613,76.8,240.667,240.667,0,0,1-4.854,48.149,237.7,237.7,0,0,1-13.921,44.846,238.924,238.924,0,0,1-22.027,40.582,240.627,240.627,0,0,1-29.173,35.358,240.622,240.622,0,0,1-35.358,29.173,238.917,238.917,0,0,1-40.582,22.027,237.7,237.7,0,0,1-44.846,13.921A240.668,240.668,0,0,1-961.835,1486.057Z" transform="translate(1709.92 -993.76)"/></g></svg>