<svg xmlns="http://www.w3.org/2000/svg" xmlns:xlink="http://www.w3.org/1999/xlink" width="834.021" height="290" viewBox="0 0 834.021 290"><defs><style>.a{fill:#f9fcff;}.b{filter:url(#a);}</style><filter id="a" x="0" y="0" width="834.021" height="290" filterUnits="userSpaceOnUse"><feOffset dy="5" input="SourceAlpha"/><feGaussianBlur stdDeviation="10" result="b"/><feFlood flood-opacity="0.071"/><feComposite operator="in" in2="b"/><feComposite in="SourceGraphic"/></filter></defs><g class="b" transform="matrix(1, 0, 0, 1, 0, 0)"><path class="a" d="M-905.98,1046H-1670a10.011,10.011,0,0,1-10-10V826a10.011,10.011,0,0,1,10-10H-905.98v230ZM-1011,875.5a55.563,55.563,0,0,0-55.5,55.5,55.563,55.563,0,0,0,55.5,55.5A55.563,55.563,0,0,0-955.5,931,55.562,55.562,0,0,0-1011,875.5Z" transform="translate(1710 -791)"/></g></svg>