<svg xmlns="http://www.w3.org/2000/svg" xmlns:xlink="http://www.w3.org/1999/xlink" width="938.074" height="995.355" viewBox="0 0 938.074 995.355"><defs><style>.a{fill:#f9fcff;}.b{filter:url(#a);}</style><filter id="a" x="0" y="0" width="938.074" height="995.355" filterUnits="userSpaceOnUse"><feOffset dy="5" input="SourceAlpha"/><feGaussianBlur stdDeviation="10" result="b"/><feFlood flood-opacity="0.071"/><feComposite operator="in" in2="b"/><feComposite in="SourceGraphic"/></filter></defs><g class="b" transform="matrix(1, 0, 0, 1, 0, 0)"><path class="a" d="M-1387.484,1751.355h-.01a1123.906,1123.906,0,0,1-116.48-6.155c-31.219-3.267-62.4-7.822-92.685-13.539-26.938-5.086-48.165-10.17-61.229-13.539-14.115-3.641-22.036-6.13-22.112-6.154V819.436h592.169c.054-.008,5.672-.87,15.124-1.718,8.735-.784,22.638-1.718,39.26-1.718a410.667,410.667,0,0,1,61.339,4.438c24.687,3.745,47.327,9.849,67.29,18.141,51.491,21.389,85.475,57.174,101.008,106.361a38.3,38.3,0,0,1,1.867,10.152,25.792,25.792,0,0,1-1.119,8.629c-1.58,5.027-4.8,9.509-9.847,13.7-4.339,3.606-9.976,6.989-17.739,10.646-6.926,3.263-14.7,6.346-22.924,9.609l-.007,0c-8.3,3.292-16.883,6.7-25.5,10.636a190.8,190.8,0,0,0-25.278,13.67c-18.569,12.146-31.322,26.737-38.986,44.605a99.6,99.6,0,0,0-4.484,12.868,113.98,113.98,0,0,0-2.947,14.482,154.379,154.379,0,0,0-.576,34.336,255.194,255.194,0,0,0,7.7,42.385,437.96,437.96,0,0,0,17.389,51.5c6.517,16.186,12.477,32.228,17.716,47.68,5.17,15.247,9.78,30.344,13.7,44.87,3.87,14.332,7.179,28.506,9.833,42.128,2.619,13.437,4.674,26.712,6.108,39.456,1.415,12.568,2.265,24.967,2.528,36.853.259,11.719-.047,23.265-.909,34.318a295.62,295.62,0,0,1-4.2,31.853,260.662,260.662,0,0,1-7.348,29.457,238.463,238.463,0,0,1-10.351,27.13,227.6,227.6,0,0,1-13.211,24.872,227.157,227.157,0,0,1-15.925,22.683,236.494,236.494,0,0,1-18.5,20.563,255.528,255.528,0,0,1-20.921,18.512,284.421,284.421,0,0,1-23.2,16.53c-7.995,5.121-16.521,10.039-25.34,14.618-8.674,4.5-17.871,8.8-27.333,12.774-14.465,6.074-29.407,11.8-44.412,17.033-14.511,5.056-29.472,9.779-44.467,14.037-14.475,4.111-29.376,7.9-44.291,11.266-14.366,3.241-29.13,6.174-43.882,8.717-27.786,4.791-56.591,8.384-85.615,10.681C-1332.807,1750.291-1360.128,1751.355-1387.484,1751.355Zm-26.541-122.295a47.04,47.04,0,0,0-18.431,3.721,47.18,47.18,0,0,0-15.052,10.147,47.2,47.2,0,0,0-10.147,15.051,47.058,47.058,0,0,0-3.72,18.431,47.064,47.064,0,0,0,3.72,18.431,47.212,47.212,0,0,0,10.147,15.051,47.2,47.2,0,0,0,15.052,10.147,47.042,47.042,0,0,0,18.431,3.722,47.049,47.049,0,0,0,18.431-3.722,47.194,47.194,0,0,0,15.051-10.147,47.2,47.2,0,0,0,10.147-15.051,47.049,47.049,0,0,0,3.722-18.431,47.043,47.043,0,0,0-3.722-18.431,47.181,47.181,0,0,0-10.147-15.051,47.176,47.176,0,0,0-15.051-10.147A47.047,47.047,0,0,0-1414.024,1629.061Zm.018,70.334a22.993,22.993,0,0,1-22.967-22.966,22.993,22.993,0,0,1,22.967-22.966,22.992,22.992,0,0,1,22.966,22.966A22.992,22.992,0,0,1-1414.006,1699.395Z" transform="translate(1710 -791)"/></g></svg>