<svg xmlns="http://www.w3.org/2000/svg" xmlns:xlink="http://www.w3.org/1999/xlink" width="2318.817" height="2399.511" viewBox="0 0 2318.817 2399.511"><defs><style>.a{fill:#fff;}.b{filter:url(#a);}</style><filter id="a" x="0" y="0" width="2318.817" height="2399.511" filterUnits="userSpaceOnUse"><feOffset dy="5" input="SourceAlpha"/><feGaussianBlur stdDeviation="10" result="b"/><feFlood flood-opacity="0.071"/><feComposite operator="in" in2="b"/><feComposite in="SourceGraphic"/></filter></defs><g class="b" transform="matrix(1, 0, 0, 1, 0, 0)"><path class="a" d="M-724.722,3150.364c-177.484-50.626-286.3-198.953-555.613-286.3S-1680,3022.958-1680,3022.958l33.96-598.656,44.041,3.3V816H318V1821.316a50.233,50.233,0,0,0-7.974-.5c-11.551,0-36.086,2.476-70.626,19.059-19.1,9.17-38.867,21.516-58.752,36.694-11.339,8.656-22.9,18.377-34.352,28.893-12.359,11.345-24.92,23.912-37.335,37.353-9.311,10.079-18.747,19.458-28.046,27.876-8.81,7.976-17.775,15.338-26.645,21.883A284.676,284.676,0,0,1,28.938,2009.3,252.8,252.8,0,0,1,4.826,2021.71a259.851,259.851,0,0,1-44.917,15.217c-14.3,3.5-27.922,5.785-41.1,8l-.008,0c-17.006,2.855-33.069,5.552-48.568,10.513a142.509,142.509,0,0,0-22.829,9.435,129.22,129.22,0,0,0-22.115,14.622c-74.286,60.65-93.483,83.614-111.5,170.1a119.723,119.723,0,0,0-2.406,28.674,128.985,128.985,0,0,0,4.434,29.008,142.229,142.229,0,0,0,11.127,28.384,158.437,158.437,0,0,0,17.672,26.807,180.374,180.374,0,0,0,32.128,30.627,212.254,212.254,0,0,0,42.408,24.4,256.654,256.654,0,0,0,52.376,16.131,320.834,320.834,0,0,0,62.032,5.829c1.17,0,2.3-.005,3.443-.016,1.02-.01,2.021-.014,2.977-.014,9.635,0,19.2.454,28.424,1.347,8.827.856,17.579,2.136,26.012,3.809a239.105,239.105,0,0,1,45.1,13.593,220.778,220.778,0,0,1,64.766,41.248,221.5,221.5,0,0,1,20.941,22.029,211,211,0,0,1,14.167,19.218,141.959,141.959,0,0,1,10.566,18.749,126.033,126.033,0,0,0,8.327,13.312c3.289,4.7,6.917,9.41,10.783,14A213.57,213.57,0,0,0,184,2602.693c41.122,15.1,87,32.461,132.547,50.693q.733-.725,1.449-1.529v2.11c135.433,54.281,267.281,116.126,260.571,148.932-13.615,66.561-241.942,230.125-458.955,235.857C15.681,3041.5-28.769,3014.9-69.261,2988.3c-44.053-28.938-83.425-57.875-189.619-49.025-187,15.583-167.878,216.252-397.533,216.232A490.464,490.464,0,0,1-724.722,3150.364Z" transform="translate(1710 -791)"/></g></svg>