<svg xmlns="http://www.w3.org/2000/svg" xmlns:xlink="http://www.w3.org/1999/xlink" width="970.266" height="970.764" viewBox="0 0 970.266 970.764"><defs><style>.a{opacity:0.06;}.b{fill:#00b4dd;}.c{filter:url(#i);}.d{filter:url(#g);}.e{filter:url(#e);}.f{filter:url(#c);}.g{filter:url(#a);}</style><filter id="a" x="557.469" y="500.109" width="88.671" height="88.671" filterUnits="userSpaceOnUse"><feOffset dx="5" dy="5" input="SourceAlpha"/><feGaussianBlur stdDeviation="5" result="b"/><feFlood flood-color="#00b4dd"/><feComposite operator="in" in2="b"/><feComposite in="SourceGraphic"/></filter><filter id="c" x="395.977" y="358.171" width="411.418" height="372.533" filterUnits="userSpaceOnUse"><feOffset dx="5" dy="5" input="SourceAlpha"/><feGaussianBlur stdDeviation="5" result="d"/><feFlood flood-color="#00b4dd"/><feComposite operator="in" in2="d"/><feComposite in="SourceGraphic"/></filter><filter id="e" x="121.164" y="50.281" width="111.67" height="111.67" filterUnits="userSpaceOnUse"><feOffset dx="5" dy="5" input="SourceAlpha"/><feGaussianBlur stdDeviation="5" result="f"/><feFlood flood-color="#00b4dd"/><feComposite operator="in" in2="f"/><feComposite in="SourceGraphic"/></filter><filter id="g" x="41.753" y="133.799" width="111.054" height="111.053" filterUnits="userSpaceOnUse"><feOffset dx="5" dy="5" input="SourceAlpha"/><feGaussianBlur stdDeviation="5" result="h"/><feFlood flood-color="#00b4dd"/><feComposite operator="in" in2="h"/><feComposite in="SourceGraphic"/></filter><filter id="i" x="0" y="0" width="970.266" height="970.764" filterUnits="userSpaceOnUse"><feOffset dx="5" dy="5" input="SourceAlpha"/><feGaussianBlur stdDeviation="5" result="j"/><feFlood flood-color="#00b4dd"/><feComposite operator="in" in2="j"/><feComposite in="SourceGraphic"/></filter></defs><g class="a" transform="translate(9.864 10)"><g transform="translate(0.136)"><g class="g" transform="matrix(1, 0, 0, 1, -10, -10)"><rect class="b" width="58.671" height="58.671" transform="translate(567.47 510.11)"/></g><g class="f" transform="matrix(1, 0, 0, 1, -10, -10)"><path class="b" d="M547.951,307.545c-6.307-3.491-16.9-9.329-18.54-10.854a109.519,109.519,0,0,1-1.2-24.026c.293-23.468.7-55.737-25.9-71.2-26.05-15.078-53.273,1.026-73.338,12.849a129.568,129.568,0,0,1-21.708,11.294,107.454,107.454,0,0,1-22.53-11.294A72.255,72.255,0,0,0,311.39,201.5c-26.578,15.4-26.167,47.641-25.874,71.168a210.619,210.619,0,0,1-.352,22.617,110.787,110.787,0,0,1-19.391,12.262c-20.946,11.734-49.665,27.517-49.665,59.081s28.719,47.465,49.665,59.082c6.307,3.491,16.9,9.328,18.54,10.854a109.535,109.535,0,0,1,1.2,24.026c-.293,23.469-.7,55.737,25.9,71.2a44.648,44.648,0,0,0,22.676,6.1,105.39,105.39,0,0,0,50.574-18.95,129.551,129.551,0,0,1,21.708-11.294,107.459,107.459,0,0,1,22.53,11.294c19.919,11.734,47.23,27.927,73.339,12.82,26.578-15.4,26.167-47.641,25.874-71.168a210.556,210.556,0,0,1,.352-22.617,110.785,110.785,0,0,1,19.391-12.262c20.946-11.734,49.665-27.517,49.665-59.082S568.9,319.161,547.951,307.545ZM519.524,374.37a99.467,99.467,0,0,0-41.07,33.384,102.335,102.335,0,0,0-8.8,53.6v13.2c-3.755-2.054-7.686-4.371-10.649-6.1A106.751,106.751,0,0,0,406.935,449a106.759,106.759,0,0,0-51.953,19.45c-2.934,1.731-6.894,4.048-10.649,6.1v-13.2a102.455,102.455,0,0,0-8.8-53.566,99.56,99.56,0,0,0-41.216-33.413c-3.814-2.141-9.035-5.016-13.406-7.744,4.371-2.728,9.592-5.6,13.406-7.745A99.25,99.25,0,0,0,335.386,325.5a102.334,102.334,0,0,0,8.8-53.6V258.7c3.755,2.054,7.686,4.371,10.649,6.1a106.751,106.751,0,0,0,52.1,19.449A106.756,106.756,0,0,0,458.888,264.8c2.934-1.731,6.894-4.048,10.648-6.1v13.2a102.453,102.453,0,0,0,8.8,53.566,99.364,99.364,0,0,0,41.216,33.413c3.813,2.141,9.035,5.016,13.406,7.745C528.56,369.354,523.338,372.229,519.524,374.37Z" transform="translate(189.87 172.82)"/></g><g class="e" transform="matrix(1, 0, 0, 1, -10, -10)"><path class="b" d="M147.891,77.969,118.057,27.424A357.4,357.4,0,0,0,66.221,64.8l38.488,44.3A293.07,293.07,0,0,1,147.891,77.969Z" transform="translate(64.94 32.86)"/></g><g class="d" transform="matrix(1, 0, 0, 1, -10, -10)"><path class="b" d="M103.963,109.586,58.111,72.976a351.409,351.409,0,0,0-35.2,53.332L74.6,154.029A294.019,294.019,0,0,1,103.963,109.586Z" transform="translate(28.84 70.82)"/></g><g class="c" transform="matrix(1, 0, 0, 1, -10, -10)"><path class="b" d="M848.67,353.433c80.174-119.542,89.883-312.715,90.294-321.369L940.4,0,908.309,1.408C899.655,1.819,706.482,11.5,586.94,91.556a351.381,351.381,0,0,0-356.1-68.674l20.183,55.062C397.415,24.385,560.142,94.6,621.615,237.851c-11.411-1.115-22.94-1.76-34.674-1.76a352.673,352.673,0,0,0-77.827,8.8c-5.222-3.256-10.531-6.307-15.812-9.241a212.964,212.964,0,0,1-18.54-10.883,109.285,109.285,0,0,1-1.2-24c.323-23.468.7-55.737-25.727-71.05s-53.39.733-73.338,12.526a127.621,127.621,0,0,1-21.826,11.294,107.644,107.644,0,0,1-22.588-11.294c-19.948-11.734-47.289-27.9-73.133-12.673-26.7,15.577-26.314,47.846-25.991,71.314a220.512,220.512,0,0,1-.323,22.588,109,109,0,0,1-19.273,12.115c-21.033,11.734-49.87,27.517-49.87,59.14s28.749,47.523,49.87,59.14c6.688,3.667,16.78,9.241,18.393,10.707a109.29,109.29,0,0,1,1.2,24c-.323,23.468-.7,55.737,25.639,70.992.851.5,1.7.645,2.552,1.085a349.9,349.9,0,0,0-24.231,127.462c0,11.734.645,23.468,1.76,34.909C97.736,563.314,26.831,407.879,72.809,263.813L16.866,246.006C-42.21,431.351,60.149,629.491,245.493,688.569q2.291.729,4.589,1.428C305.975,876.123,502.17,981.7,688.3,925.8S980,673.716,924.1,487.59A351.907,351.907,0,0,0,848.67,353.433Zm28.866-290.42c-5.867,56.265-23.468,171.231-72.253,249.644A350.4,350.4,0,0,0,719.595,262.4L842.363,139.636l-41.48-41.627L678.115,220.778a348.412,348.412,0,0,0-50.339-85.806C706.1,86.481,821.242,68.879,877.536,63.012ZM280.884,335.831a98.4,98.4,0,0,0-41.069-33.354c-3.814-2.141-9.065-5.016-13.436-7.774,4.371-2.758,9.622-5.632,13.436-7.774a98.245,98.245,0,0,0,41.04-33.237,102.32,102.32,0,0,0,8.8-53.566V186.837c3.755,2.053,7.686,4.371,10.678,6.1a106.959,106.959,0,0,0,51.924,19.391,106.958,106.958,0,0,0,51.953-19.391c2.934-1.731,6.923-4.048,10.678-6.1v13.289a102.242,102.242,0,0,0,8.8,53.449,59.962,59.962,0,0,0,14.286,16.105A353.312,353.312,0,0,0,289.626,400.369V389.28A102.281,102.281,0,0,0,280.884,335.831ZM586.94,881.469c-162.016,0-293.354-131.338-293.354-293.354S424.925,294.762,586.94,294.762c161.94.178,293.176,131.413,293.354,293.354C880.294,750.131,748.954,881.469,586.94,881.469Z" transform="translate(9.86 10)"/></g></g></g></svg>