<svg xmlns="http://www.w3.org/2000/svg" xmlns:xlink="http://www.w3.org/1999/xlink" width="2172.653" height="862.337" viewBox="0 0 2172.653 862.337"><defs><style>.a{fill:#f5f7fa;}.b{fill:#f9fcff;}.c{fill:#fff;}.d{filter:url(#a);}</style><filter id="a" x="0" y="0" width="2117.653" height="740.328" filterUnits="userSpaceOnUse"><feOffset dy="5" input="SourceAlpha"/><feGaussianBlur stdDeviation="10" result="b"/><feFlood flood-opacity="0.071"/><feComposite operator="in" in2="b"/><feComposite in="SourceGraphic"/></filter></defs><g transform="translate(30 25)"><path class="a" d="M1680,3415.424s228.688-405,522-466.588,478.081,93.318,478.081,93.318,169.838,141.843,584.168,95.184,535.643-324.745,535.643-324.745l-196.9,787.974s-296.009,21.8-1053,12.094S1680,3415.424,1680,3415.424Z" transform="translate(-1657.239 -2777.813)"/><g class="d" transform="matrix(1, 0, 0, 1, -30, -25)"><path class="b" d="M2057.653,154.635s-228.688,405-522,466.588-478.081-93.318-478.081-93.318S887.734,386.063,473.4,432.722,0,680.328,0,680.328v-374.4S402.647-9.486,1159.64.219,2057.653,154.635,2057.653,154.635Z" transform="translate(30 25)"/></g><ellipse class="c" cx="2.5" cy="2.5" rx="2.5" ry="2.5" transform="translate(482.761 369.187)"/><ellipse class="c" cx="2.5" cy="2.5" rx="2.5" ry="2.5" transform="translate(675.761 330.187)"/><ellipse class="c" cx="2.5" cy="2.5" rx="2.5" ry="2.5" transform="translate(875.761 370.187)"/><ellipse class="c" cx="2.5" cy="2.5" rx="2.5" ry="2.5" transform="translate(1071.761 440.187)"/><ellipse class="c" cx="2.5" cy="2.5" rx="2.5" ry="2.5" transform="translate(1269.761 296.187)"/><ellipse class="c" cx="2.5" cy="2.5" rx="2.5" ry="2.5" transform="translate(1484.761 354.187)"/></g></svg>