<svg xmlns="http://www.w3.org/2000/svg" xmlns:xlink="http://www.w3.org/1999/xlink" width="1980.002" height="7313" viewBox="0 0 1980.002 7313"><defs><style>.a{fill:#f9fcff;}.b{filter:url(#a);}</style><filter id="a" x="0" y="0" width="1980.002" height="7313" filterUnits="userSpaceOnUse"><feOffset dy="5" input="SourceAlpha"/><feGaussianBlur stdDeviation="10" result="b"/><feFlood flood-opacity="0.071"/><feComposite operator="in" in2="b"/><feComposite in="SourceGraphic"/></filter></defs><g class="b" transform="matrix(1, 0, 0, 1, 0, 0)"><path class="a" d="M240.027,8069h-1920V4748.916a200.433,200.433,0,0,1,3.585-31.509A293.48,293.48,0,0,1-1659.8,4661.6a358.474,358.474,0,0,1,39.448-71.716,420.583,420.583,0,0,1,31.379-39.2,481.8,481.8,0,0,1,40.794-40.021,567.72,567.72,0,0,1,51.441-39.8,687.184,687.184,0,0,1,63.321-38.522c23.817-12.833,49.533-25.013,76.435-36.2,28.439-11.829,58.982-22.874,90.779-32.828,33.475-10.478,69.259-20.034,106.358-28.4,19.2-4.333,39.192-8.441,59.406-12.214,20.624-3.849,42.076-7.454,63.763-10.715,22.14-3.325,45.111-6.383,68.275-9.083,23.639-2.754,48.18-5.218,72.94-7.321,25.2-2.14,51.365-3.966,77.759-5.428,26.84-1.485,54.675-2.63,82.732-3.4,23.51-.648,46.7-1.679,68.936-3.063,21.906-1.365,43.475-3.111,64.105-5.187,20.322-2.044,40.318-4.464,59.435-7.195,18.774-2.681,37.253-5.739,54.924-9.092,17.319-3.285,34.334-6.944,50.571-10.874,15.929-3.858,31.534-8.078,46.378-12.546,14.585-4.391,28.832-9.137,42.344-14.105,13.266-4.878,26.21-10.11,38.471-15.55,11.993-5.32,23.686-11,34.754-16.881,10.825-5.753,21.323-11.845,31.2-18.1,9.674-6.128,19.028-12.591,27.8-19.209,8.585-6.473,16.85-13.27,24.567-20.2,7.545-6.778,14.775-13.873,21.489-21.085,6.561-7.047,12.808-14.4,18.571-21.853,5.623-7.272,10.944-14.846,15.813-22.511,4.744-7.467,9.189-15.223,13.213-23.053a292.539,292.539,0,0,0,15.555-36.085,305.631,305.631,0,0,0,10.408-36.689,331.071,331.071,0,0,0,5.834-36.888,366.939,366.939,0,0,0,1.83-36.683c.024-42.991-7.135-88.948-21.276-136.593-5.557-18.72-12.216-37.745-19.794-56.545-6.065-15.044-12.726-29.982-19.8-44.4-11.786-24.012-20.938-38.774-21.323-39.391l-.005-.009c-.189-.183-4.735-4.564-13.342-12.027-8.055-6.984-21.4-18.155-39.218-31.708-20.035-15.239-41.529-30.32-63.883-44.827-27.946-18.138-57.331-35.427-87.336-51.387a1201.4,1201.4,0,0,0-240.19-96.211c-24-6.712-48.495-12.735-72.814-17.9-25.608-5.441-51.723-10.085-77.618-13.8-27.168-3.9-54.848-6.885-82.27-8.88-28.68-2.084-57.875-3.142-86.772-3.141-17.395,0-35.076.384-52.556,1.141-30.789,1.333-61.442,3.37-91.106,6.056-28.365,2.569-56.573,5.8-83.84,9.6-26.017,3.628-51.844,7.866-76.764,12.6-23.712,4.5-47.224,9.566-69.881,15.052-78.447,18.99-150.622,43.861-214.518,73.919-25.1,11.808-48.965,24.456-70.94,37.592-17.58,10.51-33.989,21.352-48.774,32.225-13.146,9.667-22.558,17.58-28.14,22.517-5.792,5.124-8.722,8.141-9.036,8.469l0-2746.235h1920V8069Z" transform="translate(1709.97 -791)"/></g></svg>