<svg xmlns="http://www.w3.org/2000/svg" xmlns:xlink="http://www.w3.org/1999/xlink" width="175.767" height="175.767" viewBox="0 0 175.767 175.767"><defs><style>.a{opacity:0.2;}.b{fill:#00b4dd;}.c{filter:url(#a);}</style><filter id="a" x="0" y="0" width="175.767" height="175.767" filterUnits="userSpaceOnUse"><feOffset dx="5" dy="5" input="SourceAlpha"/><feGaussianBlur stdDeviation="5" result="b"/><feFlood flood-color="#00b4dd"/><feComposite operator="in" in2="b"/><feComposite in="SourceGraphic"/></filter></defs><g class="a" transform="translate(10 10)"><g transform="translate(9.666 103.977)"><path class="b" d="M61.878,375.816a7.253,7.253,0,0,1-4.3-7.449,2.847,2.847,0,0,0-4.512-2.605,7.252,7.252,0,0,1-8.6,0,2.847,2.847,0,0,0-4.512,2.605,7.254,7.254,0,0,1-4.3,7.449,2.847,2.847,0,0,0,0,5.21,7.254,7.254,0,0,1,4.3,7.449,2.847,2.847,0,0,0,4.512,2.6,7.253,7.253,0,0,1,8.6,0,2.847,2.847,0,0,0,4.512-2.6,7.254,7.254,0,0,1,4.3-7.449,2.847,2.847,0,0,0,0-5.21Zm-9.634,8.631a12.9,12.9,0,0,0-6.958,0,12.9,12.9,0,0,0-3.479-6.025,12.9,12.9,0,0,0,3.479-6.025,12.9,12.9,0,0,0,6.958,0,12.9,12.9,0,0,0,3.479,6.025A12.9,12.9,0,0,0,52.244,384.446Z" transform="translate(-33.954 -365.212)"/></g><g transform="translate(79.696 91.095)"><path class="b" d="M310.7,331.8a8.456,8.456,0,0,1-5.013-8.683,2.847,2.847,0,0,0-4.512-2.6,8.456,8.456,0,0,1-10.026,0,2.847,2.847,0,0,0-4.512,2.605,8.456,8.456,0,0,1-5.013,8.683,2.847,2.847,0,0,0,0,5.21,8.455,8.455,0,0,1,5.013,8.683,2.847,2.847,0,0,0,4.512,2.605,8.454,8.454,0,0,1,10.026,0,2.847,2.847,0,0,0,4.512-2.6,8.456,8.456,0,0,1,5.013-8.683,2.847,2.847,0,0,0,0-5.21Zm-10.4,9.774a14.1,14.1,0,0,0-8.278,0,14.1,14.1,0,0,0-4.139-7.169,14.1,14.1,0,0,0,4.139-7.169,14.105,14.105,0,0,0,8.278,0,14.1,14.1,0,0,0,4.139,7.169A14.1,14.1,0,0,0,300.3,341.578Z" transform="translate(-279.93 -319.967)"/></g><g transform="translate(21.014 42.283)"><path class="b" d="M101.613,157.792c-2.818-1.089-4.5-3.531-4.183-6.076a2.847,2.847,0,0,0-4.363-2.747,8.473,8.473,0,0,1-8.89,0,2.847,2.847,0,0,0-4.363,2.747c.316,2.546-1.365,4.987-4.183,6.076a2.847,2.847,0,0,0,0,5.311c2.818,1.089,4.5,3.531,4.183,6.076a2.847,2.847,0,0,0,4.363,2.747,8.473,8.473,0,0,1,8.89,0,2.847,2.847,0,0,0,4.363-2.747c-.316-2.545,1.365-4.987,4.183-6.076a2.847,2.847,0,0,0,0-5.311Zm-9.451,7.62a14.375,14.375,0,0,0-7.08,0,11.373,11.373,0,0,0-3.129-4.965,11.377,11.377,0,0,0,3.129-4.965,14.379,14.379,0,0,0,7.081,0,11.373,11.373,0,0,0,3.129,4.965A11.373,11.373,0,0,0,92.162,165.412Z" transform="translate(-73.81 -148.518)"/></g><g transform="translate(21.632 114.336)"><path class="b" d="M80.841,402.435a2.856,2.856,0,1,0,.831,2.015A2.869,2.869,0,0,0,80.841,402.435Z" transform="translate(-75.981 -401.601)"/></g><g transform="translate(93.086 103.902)"><path class="b" d="M331.821,365.786a2.845,2.845,0,1,0,.834,2.013A2.869,2.869,0,0,0,331.821,365.786Z" transform="translate(-326.961 -364.952)"/></g><g transform="translate(32.977 51.366)"><path class="b" d="M120.691,181.255a2.846,2.846,0,1,0,.834,2.013A2.851,2.851,0,0,0,120.691,181.255Z" transform="translate(-115.831 -180.421)"/></g><g transform="translate(117.94 111.644)"><path class="b" d="M418.931,392.749a2.848,2.848,0,0,0-4.024.522l-.029.038a2.849,2.849,0,0,0,.5,4.027,2.891,2.891,0,0,0,1.75.588,2.921,2.921,0,0,0,1.807-5.175Z" transform="translate(-414.26 -392.145)"/></g><g transform="translate(79.58 21.931)"><path class="b" d="M284.495,77.862a2.847,2.847,0,0,0-4.026.007l-.119.119A2.847,2.847,0,1,0,284.39,82l.112-.112A2.847,2.847,0,0,0,284.495,77.862Z" transform="translate(-279.523 -77.032)"/></g><g transform="translate(0)"><g class="c" transform="matrix(1, 0, 0, 1, -10, -10)"><path class="b" d="M145.768,46.15a2.84,2.84,0,0,0-4.437-2.361c-.069.046-7.059,4.573-21.675,4.573A30.176,30.176,0,0,0,96.6,58.806c-.671-.038-1.347-.059-2.027-.059-.127,0-.253,0-.379.005,3.822-5.944,6.161-14.14,6.605-23.563C101.474,20.823,97.621,7.656,90.738.826a2.847,2.847,0,0,0-3.89-.113,48.372,48.372,0,0,1-7.142,4.166A164.033,164.033,0,0,0,61.867,15.407c-8.772,6.083-11.16,15.5-11.774,21.155A35.819,35.819,0,0,0,0,69.42,35.438,35.438,0,0,0,6.292,89.69a35.82,35.82,0,1,0,63.721,30.971,35.858,35.858,0,0,0,40.338,6.082,2.847,2.847,0,0,0-2.511-5.111,30.148,30.148,0,0,1-36.405-7.761,36.042,36.042,0,0,0,.216-3.929A35.621,35.621,0,0,0,65.36,89.69a35.312,35.312,0,0,0,5.748-14.018A29.918,29.918,0,0,1,87.7,65.222a2.883,2.883,0,0,0,.341-.074,30.161,30.161,0,0,1,35.725,36.892,2.847,2.847,0,1,0,5.518,1.406,36.1,36.1,0,0,0,.921-12.549C145.584,77.684,145.768,47.464,145.768,46.15ZM65.957,109.942A30.131,30.131,0,1,1,35.826,79.811,30.165,30.165,0,0,1,65.957,109.942Zm-.341-35.99c-.017.089-.03.177-.038.266a29.64,29.64,0,0,1-4,10.847,35.763,35.763,0,0,0-51.506,0A29.8,29.8,0,0,1,5.7,69.42a30.131,30.131,0,0,1,60.262,0A30.625,30.625,0,0,1,65.616,73.953ZM85.959,59.784a35.4,35.4,0,0,0-14.255,7.2,45.8,45.8,0,0,1,5.285-30.245,2.847,2.847,0,1,0-4.958-2.8,51.531,51.531,0,0,0-5.889,16.416A36.107,36.107,0,0,0,55.6,39.559c.092-3.636,1.137-13.661,9.516-19.473A156.871,156.871,0,0,1,82.358,9.918c2.4-1.262,4.381-2.306,5.934-3.267,4.716,6.124,7.355,16.864,6.817,28.271C94.59,45.9,91.184,55.117,85.959,59.784Zm42.909,24.439a35.9,35.9,0,0,0-10.257-16.188,21.854,21.854,0,0,1,10.743-2.78,2.847,2.847,0,1,0,0-5.694,27.455,27.455,0,0,0-15.582,4.78,35.649,35.649,0,0,0-10.211-4.451,24.628,24.628,0,0,1,16.094-5.836,56.683,56.683,0,0,0,20.2-3.289C139.252,58.684,137.036,74.891,128.868,84.224Z" transform="translate(10 10)"/></g></g></g></svg>