<svg xmlns="http://www.w3.org/2000/svg" xmlns:xlink="http://www.w3.org/1999/xlink" width="230.434" height="240.335" viewBox="0 0 230.434 240.335"><defs><style>.a{opacity:0.2;}.b{fill:#00b4dd;}.c{filter:url(#g);}.d{filter:url(#e);}.e{filter:url(#c);}.f{filter:url(#a);}</style><filter id="a" x="0" y="0" width="230.434" height="240.335" filterUnits="userSpaceOnUse"><feOffset dx="5" dy="5" input="SourceAlpha"/><feGaussianBlur stdDeviation="5" result="b"/><feFlood flood-color="#00b4dd"/><feComposite operator="in" in2="b"/><feComposite in="SourceGraphic"/></filter><filter id="c" x="167.17" y="99.284" width="42.242" height="42.264" filterUnits="userSpaceOnUse"><feOffset dx="5" dy="5" input="SourceAlpha"/><feGaussianBlur stdDeviation="3.5" result="d"/><feFlood flood-color="#00b4dd"/><feComposite operator="in" in2="d"/><feComposite in="SourceGraphic"/></filter><filter id="e" x="83.522" y="136.225" width="66.68" height="66.679" filterUnits="userSpaceOnUse"><feOffset dx="5" dy="5" input="SourceAlpha"/><feGaussianBlur stdDeviation="3.5" result="f"/><feFlood flood-color="#00b4dd"/><feComposite operator="in" in2="f"/><feComposite in="SourceGraphic"/></filter><filter id="g" x="21.495" y="88.383" width="49.465" height="50.869" filterUnits="userSpaceOnUse"><feOffset dx="5" dy="5" input="SourceAlpha"/><feGaussianBlur stdDeviation="3.5" result="h"/><feFlood flood-color="#00b4dd"/><feComposite operator="in" in2="h"/><feComposite in="SourceGraphic"/></filter></defs><g class="a" transform="translate(10 10)"><g class="f" transform="matrix(1, 0, 0, 1, -10, -10)"><path class="b" d="M197.731,100.8a40.484,40.484,0,0,0-23.87-22.187,46.938,46.938,0,0,0-58.032,24.734,116.024,116.024,0,0,1-.663-29.634L127.876,61.7a45.884,45.884,0,0,0,7.2.578,40.436,40.436,0,0,0,28.166-11.026,41.348,41.348,0,0,0,12.395-32.542,7.574,7.574,0,0,0-6.766-7.114A41.359,41.359,0,0,0,135.75,22.35c-9.288,8.834-13.685,21.5-12.19,34.956l-11.2,10.58-10.654-11.2c2.621-15.8-1.792-31.037-12.231-42.014C79.85,4.553,65.885-.765,51.168.087a8.433,8.433,0,0,0-7.921,7.534C41.66,22.28,46.269,36.49,55.893,46.61A47.845,47.845,0,0,0,91,61.291a54.73,54.73,0,0,0,6.238-.364L108.7,72.982C103.866,85.571,94.737,90.168,90.64,91.646a50.557,50.557,0,0,0-24.2-21.619c-24.575-10.529-52.6-.35-62.473,22.691S6.053,143.071,30.628,153.6a51.218,51.218,0,0,0,20.147,4.167c.846,0,1.691-.024,2.535-.067-.083,1.143-.132,2.292-.132,3.449,0,27.12,23.541,49.185,52.478,49.185s52.478-22.063,52.478-49.185c0-.119,0-.238,0-.356a47.222,47.222,0,0,0,14.962-3.707c22.715-9.733,33.768-34.983,24.639-56.287ZM140,26.814c7.391-7.03,17.413-10.257,28.213-9.088a1.447,1.447,0,0,1,1.276,1.343c.627,10.846-3.1,20.691-10.49,27.722a34.485,34.485,0,0,1-25.183,9.3l22.88-21.614A3.081,3.081,0,1,0,152.462,30L129.44,51.748A34.518,34.518,0,0,1,140,26.814ZM60.359,42.362c-8.5-8.932-12.4-21.035-10.984-34.076a2.316,2.316,0,0,1,2.15-2.046q1.423-.082,2.824-.082a41.577,41.577,0,0,1,30.66,12.761A41.845,41.845,0,0,1,96.18,50.874l-27.2-28.6a3.082,3.082,0,1,0-4.466,4.248l27.2,28.595A41.851,41.851,0,0,1,60.359,42.362Zm47.967,43.693a103.522,103.522,0,0,0,3.1,26.207,56.453,56.453,0,0,0-14.877.436A45.1,45.1,0,0,0,93.3,97.221a35.853,35.853,0,0,0,15.027-11.166Zm-2.669,118.116c-25.538,0-46.315-19.3-46.315-43.023,0-13.292,6.464-25.631,17.734-33.853a3.081,3.081,0,1,0-3.633-4.978A48.55,48.55,0,0,0,54.19,151.47a44.787,44.787,0,0,1-21.134-3.535C11.6,138.745,1.095,115.062,9.629,95.144S42.559,66.5,64.011,75.692C80,82.543,90.461,97.84,90.412,114.071q-2.595.739-5.113,1.73a3.081,3.081,0,0,0,2.263,5.732,49.062,49.062,0,0,1,18.1-3.408c25.538,0,46.316,19.3,46.316,43.023s-20.778,43.024-46.317,43.024Zm65.009-52.75a41.091,41.091,0,0,1-12.99,3.222c-2.816-19.891-18.364-36.066-38.693-41.071,2.452-12.246,11.257-22.88,23.427-28.1a39.948,39.948,0,0,1,29.362-1.069,34.391,34.391,0,0,1,20.3,18.817c7.789,18.182-1.812,39.8-21.4,48.2Zm0,0" transform="translate(9.5 10)"/></g><g class="e" transform="matrix(1, 0, 0, 1, -10, -10)"><path class="b" d="M406.552,230.8a9.047,9.047,0,0,0-7.59,2.43c-3.77,3.768-3.187,10.484,1.3,14.97a12.465,12.465,0,0,0,8.674,3.786,8.762,8.762,0,0,0,6.3-2.487c3.77-3.769,3.187-10.484-1.3-14.97A12.768,12.768,0,0,0,406.552,230.8Zm4.322,14.341a3.014,3.014,0,0,1-2.484.669,6.687,6.687,0,0,1-3.771-1.969c-2.012-2.012-2.621-4.936-1.3-6.255a2.667,2.667,0,0,1,1.932-.7,6.474,6.474,0,0,1,4.325,2c2.012,2.014,2.619,4.936,1.3,6.257Zm0,0" transform="translate(-223.8 -125.94)"/></g><g class="d" transform="matrix(1, 0, 0, 1, -10, -10)"><path class="b" d="M231.782,331.6a3.082,3.082,0,0,0-1.3,4.16,16.478,16.478,0,0,1,1.894,7.727,16.66,16.66,0,1,1-11.065-15.709,3.081,3.081,0,1,0,2.075-5.8A22.834,22.834,0,1,0,235.941,332.9a3.081,3.081,0,0,0-4.159-1.3Zm0,0" transform="translate(-103.84 -178.92)"/></g><g class="c" transform="matrix(1, 0, 0, 1, -10, -10)"><path class="b" d="M66.013,206.534a11.986,11.986,0,0,0-10.509-1.9,19,19,0,0,0-13.631,17.328,11.984,11.984,0,0,0,4.322,9.766,11.168,11.168,0,0,0,6.995,2.328c4.6,0,9.587-2.444,13.1-6.911A18.2,18.2,0,0,0,70.334,216.3a11.982,11.982,0,0,0-4.322-9.766Zm-4.565,16.8c-3.307,4.2-8.547,5.827-11.443,3.55a5.831,5.831,0,0,1-1.971-4.833,12.86,12.86,0,0,1,9.009-11.45,7.734,7.734,0,0,1,1.934-.258,5.129,5.129,0,0,1,3.227,1.035,5.831,5.831,0,0,1,1.971,4.833,12.2,12.2,0,0,1-2.726,7.123Zm0,0" transform="translate(-14.88 -110.3)"/></g></g></svg>